<?xml version="1.0" standalone="no"?>
<!DOCTYPE svg PUBLIC "-//W3C//DTD SVG 1.1//EN" "http://www.w3.org/Graphics/SVG/1.1/DTD/svg11.dtd" >
<svg>
<metadata>
Created by FontForge 20120731 at Tue May  5 22:30:07 2020
 By fw_worker
Copyright (c) 2020 by Letterhend Studio. All rights reserved.
</metadata>
<defs>
<font id="BrownChunkersDEMO" horiz-adv-x="200" >
  <font-face 
    font-family="Brown Chunkers DEMO"
    font-weight="400"
    font-stretch="normal"
    units-per-em="1000"
    panose-1="0 0 0 0 0 0 0 0 0 0"
    ascent="750"
    descent="-250"
    x-height="545"
    cap-height="645"
    bbox="-135.323 -304 5535 775"
    underline-thickness="50"
    underline-position="-75"
    unicode-range="U+000D-E03C"
  />
<missing-glyph 
 />
    <glyph glyph-name=".notdef" 
 />
    <glyph glyph-name="NULL" horiz-adv-x="0" 
 />
    <glyph glyph-name="NULL" horiz-adv-x="0" 
 />
    <glyph glyph-name="nonmarkingreturn" unicode="&#xd;" 
 />
    <glyph glyph-name="space" unicode=" " 
 />
    <glyph glyph-name="a" unicode="a" horiz-adv-x="452" 
d="M5 21q14 0 24.5 7.5t14.5 20.5l145 466q-11 9 -24 9v21h88l155 -496q4 -13 14 -20.5t24 -7.5l1 -21h-128v21h1q13 0 19 7.5t1 20.5l-8 26l-13 -17q-45 39 -94 39q-48 0 -91 -39l-14 17l-9 -26q-4 -13 2.5 -20.5t19.5 -7.5v-21h-128v21zM138 134q41 22 87 22t89 -22
l-88 283z" />
    <glyph glyph-name="t" unicode="t" horiz-adv-x="319" 
d="M10 545h299v-88h-20v1q0 14 -8 22t-22 8h-66v-437q0 -14 8.5 -22t22.5 -8v-21h-128v21q14 0 22 8t8 22v437h-66q-13 0 -21 -8t-8 -22v-1h-21v88z" />
    <glyph glyph-name="k" unicode="k" horiz-adv-x="350" 
d="M20 21q14 0 22 8t8 22v443q0 14 -8 22t-22 8v21h128v-21q-14 0 -22 -8t-8 -22v-174q41 35 76.5 80.5t49.5 96.5q3 12 -3.5 19.5t-19.5 7.5h-4v21h123v-21q-30 0 -37 -31q-9 -39 -28 -75.5t-44 -68.5l25 -14q-19 -32 -23.5 -79t6 -92t35.5 -80t64 -43l-63 -44
q-36 21 -59.5 54.5t-36 73t-13.5 82t9 82.5q-29 -26 -57 -45v-193q0 -14 8 -22t22 -8v-21h-128v21z" />
    <glyph glyph-name="u" unicode="u" horiz-adv-x="375" 
d="M15 545h128v-21q-14 0 -22 -8t-8 -22v-366q0 -38 23 -57.5t52 -19.5q28 0 51 19.5t23 59.5v364q0 14 -8 22t-22 8v21h128v-21q-14 0 -22 -8t-8 -22v-365q0 -35 -12 -61.5t-32 -44.5t-45.5 -27t-52.5 -9t-52.5 9t-46 27t-32.5 44.5t-12 61.5v365q0 14 -8 22t-22 8v21z" />
    <glyph glyph-name="o" unicode="o" horiz-adv-x="365" 
d="M30 273q0 27 1 58.5t5.5 63t14 60.5t26.5 51.5t43 36t63 13.5t62.5 -13.5t42.5 -36t26.5 -51.5t14 -60.5t5.5 -63t1 -58.5q0 -41 -3 -90.5t-17.5 -92.5t-45.5 -72t-86 -29q-56 0 -87 29t-45.5 72t-17.5 92.5t-3 90.5zM166 415q-26 10 -33.5 25t-1.5 31q-16 -17 -24 -43
t-11 -54t-3 -55v-46q0 -25 0.5 -62.5t8 -73t26 -60.5t55.5 -25q36 0 54.5 25t26 60.5t8 73t0.5 62.5v37.5t-1.5 44.5t-5.5 46.5t-12.5 42.5t-22.5 32t-35 16q-6 1 -11 -4t-5 -11t6 -11.5t21 -5.5z" />
    <glyph glyph-name="j" unicode="j" horiz-adv-x="348" 
d="M150 -10q-28 0 -53 9t-44.5 25.5t-31 40t-11.5 52.5q0 30 12 51t32 34t45 17.5t51 1.5l-18 -81q-8 8 -14.5 10.5t-12.5 2.5q-12 0 -19.5 -11t-7.5 -25q0 -30 22.5 -44.5t49.5 -14.5q25 0 41.5 11.5t26.5 30t13.5 42t3.5 46.5v306q0 14 -8 22t-22 8v21h128v-21
q-14 0 -22 -8t-8 -22v-323q0 -36 -10.5 -69t-30 -57.5t-48 -39.5t-64.5 -15z" />
    <glyph glyph-name="b" unicode="b" horiz-adv-x="381" 
d="M20 21q14 0 22 8t8 22v443q0 14 -8 22t-22 8v21h98v-38q23 22 51.5 34.5t60.5 12.5q40 0 65 -17.5t35 -43.5t4 -56.5t-28 -55.5q26 -23 40.5 -56.5t14.5 -73.5q0 -54 -19 -97.5t-51.5 -76t-77 -52t-95.5 -25.5h-98v21zM257 345q-19 -9 -42.5 -14.5t-52.5 -5.5
q-22 0 -44 3v-268q74 11 124 53.5t59 121.5q0 31 -8.5 61t-35.5 49zM118 389q21 -3 40 -3q49 0 77.5 17t37.5 37t-2 37t-41 17q-25 0 -42.5 -14t-26.5 -40l-43 38v-89z" />
    <glyph glyph-name="y" unicode="y" horiz-adv-x="361" 
d="M5 545h131v-21q-14 0 -17.5 -9t3.5 -21l59 -114l59 114q6 12 3 21t-17 9v21h131l-1 -21q-14 0 -26.5 -6t-21.5 -24l-93 -179v-264q0 -14 8 -22t22 -8v-21h-128v21q14 0 22 8t8 22v175l-37 43q13 2 22.5 16t9.5 30q0 7 -3 15l-85 164q-10 18 -22.5 24t-26.5 6v21z" />
    <glyph glyph-name="l" unicode="l" horiz-adv-x="352" 
d="M148 545v-21q-14 0 -22 -8t-8 -22v-436h173q14 0 22 8t8 22h21v-88h-322v21q14 0 22 8t8 22v443q0 14 -8 22t-22 8v21h128z" />
    <glyph glyph-name="c" unicode="c" horiz-adv-x="338" 
d="M30 274q0 44 3.5 93.5t20 91.5t49.5 70t92 28q23 0 45.5 -6.5t44.5 -23.5q4 -2 8 -1.5t4 5.5v14h21v-142h-21v6q0 20 -10.5 35.5t-25.5 26t-33 16t-33 5.5q-38 0 -58 -24t-29.5 -58.5t-11 -72t-1.5 -64.5t1.5 -64.5t11 -72t29.5 -58.5t58 -24q15 0 33 5.5t33 16t25.5 26
t10.5 35.5v6h21v-142h-21v14q0 5 -3.5 5.5t-7.5 -1.5q-23 -17 -45.5 -23.5t-45.5 -6.5q-59 0 -92 28t-49.5 70t-20 92t-3.5 95z" />
    <glyph glyph-name="n" unicode="n" horiz-adv-x="385" 
d="M118 51q0 -14 8 -22t22 -8v-21h-128v21q14 0 22 8t8 22v443q0 14 -8 22t-22 8v21h128v-21q-14 0 -22 -8t-8 -22v-23q1 -8 2 -17t3 -17q8 -31 24 -60t36.5 -56.5t42 -54.5t41.5 -54v282q0 14 -8 22t-22 8v21h128v-21h-1q-14 0 -21.5 -8t-7.5 -22v-443q0 -14 7.5 -22
t21.5 -8h1v-21h-128v21q14 0 22 8t8 22v14q-1 5 -1 14q-3 27 -18.5 54.5t-37 56.5t-46 59.5t-46.5 63.5v-262z" />
    <glyph glyph-name="e" unicode="e" horiz-adv-x="362" 
d="M20 545h322v-88h-21v1q0 14 -8 22t-22 8h-173v-106l46 36q9 -13 24.5 -23t35 -16t40.5 -8.5t41 -0.5l-49 -54q-37 0 -75.5 13t-62.5 41v-312h173q14 0 22 7.5t8 21.5v1h21v-88h-322v21q14 0 22 8t8 22v443q0 14 -8 22t-22 8v21z" />
    <glyph glyph-name="s" unicode="s" horiz-adv-x="377" 
d="M357 182q0 -48 -15.5 -84t-40.5 -60t-56.5 -35.5t-63.5 -11.5q-31 0 -60 10t-51.5 30.5t-36 50.5t-13.5 69q0 24 8 46.5t24 40t41 28t59 11.5q13 0 21 4.5t8 18.5l20 1l-4 -110l-20 2q1 23 -23 24q-38 -1 -55 -21t-17 -46q0 -24 8.5 -42.5t22.5 -31t32 -19t38 -6.5
q21 0 41.5 8t36.5 24t26 40.5t10 58.5q0 32 -14.5 57.5t-35.5 47.5t-46.5 42t-46.5 40t-35.5 41.5t-14.5 47.5q0 21 8 39t22 30.5t32 19.5t39 7q27 0 47.5 -7t37.5 -21q4 -2 8 -2.5t4 5.5v16h21v-126h-21v8q0 15 -9 28t-22.5 23t-30 15.5t-31.5 5.5q-19 0 -32 -9.5
t-13 -31.5q0 -14 14.5 -29.5t35.5 -33.5t46.5 -39.5t46.5 -47.5t35.5 -57t14.5 -69z" />
    <glyph glyph-name="m" unicode="m" horiz-adv-x="488" 
d="M20 21q14 0 22 8t8 22v443q0 14 -8 22t-22 8v21h128v-21q-14 0 -22 -8t-8 -22v-4q1 -29 14.5 -52t32.5 -45.5t40.5 -48.5t38.5 -61q17 36 38.5 62t41 49t33 46.5t13.5 53.5q0 14 -8 22t-22 8v21h128v-21q-14 0 -22 -8t-8 -22v-443q0 -14 8 -22t22 -8v-21h-128v21
q14 0 22 8t8 22v317q-17 -21 -34 -42.5t-30.5 -46.5t-22.5 -55.5t-9 -69.5v-18v-42q0 -6 1 -16t3.5 -19t7 -15.5t11.5 -6.5v-8h-106v8q7 0 11.5 6.5t7 15.5t3.5 19t1 16v42v18q0 39 -9 69.5t-22.5 55.5t-31 46.5t-33.5 42.5v-317q0 -14 8 -22t22 -8v-21h-128v21z" />
    <glyph glyph-name="d" unicode="d" horiz-adv-x="396" 
d="M118 545v-38q23 22 51.5 34.5t60.5 12.5q36 0 63.5 -13.5t45.5 -36.5t27.5 -53.5t9.5 -63.5q0 -63 -20.5 -120.5t-56 -107t-82.5 -90t-99 -69.5h-98v21q14 0 22 8t8 22v443q0 14 -8 22t-22 8v21h98zM118 70q41 26 77 60t63 74t42.5 86t15.5 97q0 21 -4.5 40t-15 34
t-27 24t-39.5 9q-25 0 -44 -13t-24 -37l-44 35v-409z" />
    <glyph glyph-name="p" unicode="p" horiz-adv-x="370" 
d="M20 545h98v-38q21 23 47.5 36.5t59.5 13.5q60 0 92.5 -39.5t32.5 -96.5q0 -47 -23.5 -84.5t-58.5 -66.5t-75.5 -49.5t-74.5 -33.5v-136q0 -14 8 -22t22 -8v-21h-128v21q14 0 22 8t8 22v443q0 14 -8 22t-22 8v21zM118 254q27 11 56.5 26.5t54 36.5t40.5 47t16 57
q0 30 -13.5 50.5t-46.5 20.5q-28 0 -48 -18t-33 -41l-26 15v-194z" />
    <glyph glyph-name="x" unicode="x" horiz-adv-x="372" 
d="M5 21q13 0 21.5 6.5t11.5 17.5q12 62 43 120t66 114q-34 54 -63.5 108t-42.5 109q-2 12 -11.5 20t-23.5 8v21h124l-1 -21q-26 0 -23 -24q11 -38 32.5 -78t47.5 -82q26 41 47.5 80.5t32.5 77.5q3 26 -24 26v21h123v-21q-25 0 -32 -22q-12 -57 -42.5 -112.5t-65.5 -110.5
q35 -56 66 -114t43 -120q3 -11 11.5 -17.5t21.5 -6.5v-21h-123v21q28 0 22 28q-11 42 -32.5 83.5t-47.5 84.5q-26 -43 -48 -84.5t-32 -83.5q-6 -28 22 -28v-21h-123v21z" />
    <glyph glyph-name="f" unicode="f" horiz-adv-x="362" 
d="M20 545h322v-88h-21v1q0 14 -8 22t-22 8h-173v-161l46 36q9 -13 24.5 -23t35 -16.5t40.5 -9t41 0.5l-49 -54q-37 0 -75.5 12.5t-62.5 41.5v-264q0 -14 8 -22t22 -8v-21h-128v21q14 0 22 8t8 22v443q0 14 -8 22t-22 8v21z" />
    <glyph glyph-name="g" unicode="g" horiz-adv-x="375" 
d="M184 -12q-56 0 -87 29t-46 72.5t-18 93t-3 90.5t3 90.5t19 92.5t49.5 72t93.5 29q23 0 45.5 -6.5t45.5 -23.5q4 -2 7.5 -2.5t3.5 5.5v15h21v-142h-21v6q0 20 -10.5 35.5t-25.5 26t-33 16t-33 5.5q-41 0 -61.5 -25t-29 -60t-9 -72.5t-0.5 -61.5q0 -25 0.5 -62.5t8 -72.5
t26 -60t54.5 -25q35 0 53.5 24t26 58t8 70t0.5 60v20q-28 13 -51.5 24.5t-43.5 11.5q-10 0 -16.5 -0.5t-11.5 -1.5t-9 -2l-4 6l57 53q23 -6 41 -15t35 -16.5t36 -11.5t45 1l2 -9l-16 -15l1 -37q0 -20 -0.5 -43t-2.5 -47v-54q0 -9 0.5 -24.5t3.5 -30.5t10.5 -25.5t21.5 -10.5
l-35 -59q-19 5 -32 19t-20 32q-17 -20 -41 -31t-58 -11z" />
    <glyph glyph-name="z" unicode="z" horiz-adv-x="385" 
d="M10 13q6 0 11.5 5t10.5 13l239 457h-189q-14 0 -22 -8.5t-8 -22.5h-21v88h344v-13q-6 0 -12 -5t-11 -13l-238 -456h199q14 0 22.5 8t8.5 22h20v-88h-354v13v0z" />
    <glyph glyph-name="q" unicode="q" horiz-adv-x="366" 
d="M84 -124q-20 14 -26 35.5t0 41.5t22.5 34.5t42.5 14.5q-33 16 -51.5 47.5t-27.5 69.5t-11 79t-2 75q0 27 1 58.5t5.5 63t14 60.5t26.5 51.5t43 36t63 13.5t62.5 -13.5t42.5 -36t26.5 -51.5t14 -60.5t5.5 -63t1 -58.5q0 -41 -3 -90.5t-17.5 -92.5t-45.5 -72t-86 -29
q-5 0 -9 0.5t-8 0.5q16 -8 32 -20t31.5 -22.5t31 -18t30.5 -7.5q18 0 33 13.5t20 33.5l8 -69q-12 -11 -27.5 -20.5t-33.5 -9.5q-28 0 -53 13t-46.5 28t-39 28t-30.5 13q-9 0 -14 -5.5t-5.5 -12t3.5 -12t14 -5.5zM94 273q0 -25 0.5 -62.5t8 -73t26 -60.5t55.5 -25
q36 0 54.5 25t26 60.5t8 73t0.5 62.5q0 24 -0.5 61.5t-8 73t-26 60.5t-54.5 25t-55 -25t-26.5 -60.5t-8 -73t-0.5 -61.5z" />
    <glyph glyph-name="v" unicode="v" horiz-adv-x="448" 
d="M133 545v-21q-13 0 -19.5 -7.5t-2.5 -20.5l113 -357l113 357q4 13 -2 20.5t-19 7.5v21h127v-21q-14 0 -24 -7.5t-14 -20.5l-146 -451q5 -24 30 -24v-21h-128v21q24 0 29 21l-146 454q-10 28 -39 28v21h128z" />
    <glyph glyph-name="w" unicode="w" horiz-adv-x="528" 
d="M5 545h128v-21q-25 0 -22 -28l57 -339q16 40 34 86t33 88.5t25 78.5t10 57t-5 42t-21 36h69q8 -19 11.5 -38.5t3.5 -39.5t-6.5 -48.5t-17.5 -62.5l59 -187l54 327q5 28 -21 28v21h127v-21q-14 0 -25 -7.5t-14 -20.5l-79 -440v-5q0 -14 8 -22t22 -8v-21h-128l1 21
q11 0 19 6.5t10 17.5l-68 212q-22 -57 -43.5 -111t-34.5 -91v-4q0 -14 8 -22t22 -8v-21h-128v21q14 0 22 8t8 22v5l-79 440q-2 13 -13.5 20.5t-25.5 7.5v21z" />
    <glyph glyph-name="A" unicode="A" horiz-adv-x="457" 
d="M107 358q-37 0 -60 21.5t-31.5 54t-2.5 70t26.5 70t55.5 54t85 21.5q18 0 43 -4t50 -7.5t48 -5.5t38 2l5 -27q-11 1 -19 -2.5t-8 -14.5l105 -621q2 -13 11 -21t23 -8l1 -21h-128v21h1q13 0 19.5 8t4.5 21l-17 107q-23 3 -44.5 -6.5t-38.5 -27.5t-26 -42t-6 -49l-39 16
q-8 -28 -18.5 -54.5t-27 -47.5t-39 -33.5t-53.5 -12.5q-14 0 -27 3.5t-27 8.5l24 74q3 -11 12.5 -16t17.5 -5q23 0 38.5 18.5t25.5 44t16 52.5t9 44l113 540q-22 5 -44.5 10t-37.5 5q-30 0 -52.5 -13.5t-36.5 -33.5t-20.5 -43t-5 -43t10.5 -33.5t26 -13.5q15 0 23 6.5
t11.5 15t3 17.5t-2.5 14l58 -33q-5 -36 -30.5 -58t-62.5 -22zM227 73q24 26 55 43t65 19l-47 288z" />
    <glyph glyph-name="U" unicode="U" horiz-adv-x="715" 
d="M10 436q0 47 18 85.5t49 66t72 42.5t87 15h63v1h128v-21q-14 0 -22 -8t-8 -22v-505q0 -29 8.5 -51t22.5 -37t32 -22.5t37 -7.5t37 7.5t32 22.5t22.5 37.5t8.5 52.5v503q0 13 -8.5 21t-22.5 8v21h129l-1 -21q-14 0 -21.5 -8t-7.5 -21v-505q0 -45 -14.5 -79.5t-38 -57
t-54 -34t-61.5 -11.5q-32 0 -62 11.5t-53.5 34t-38 57t-14.5 79.5v501h-64q-37 0 -72.5 -8t-63 -26.5t-44.5 -48t-17 -72.5q0 -40 22 -67.5t64 -27.5q25 0 39 13t18.5 29.5t-1 31.5t-20.5 18l68 37q19 -31 19.5 -64t-14.5 -60.5t-43 -45t-66 -17.5q-33 0 -59.5 12
t-45.5 32.5t-29 48.5t-10 60z" />
    <glyph glyph-name="I" unicode="I" horiz-adv-x="304" 
d="M10 531q0 34 17.5 56t44 34.5t57 18t57.5 5.5h98v-21q-14 0 -22 -8t-8 -21v-625q0 -14 8 -22t22 -8v-21h-128v21q14 0 22 8t8 22v625q-15 0 -36.5 -2.5t-41.5 -9.5t-34 -19t-14 -33q0 -11 8.5 -18t19.5 -7q19 0 19 23l56 -28q-14 -20 -32.5 -32.5t-42.5 -12.5
q-32 0 -55 21.5t-23 53.5z" />
    <glyph glyph-name="P" unicode="P" horiz-adv-x="466" 
d="M10 458q0 58 19.5 103.5t51.5 77t72 47.5t82 16q40 0 78 -15.5t67.5 -47.5t47.5 -81t18 -116q0 -51 -18 -97.5t-48 -86.5t-69.5 -73t-81.5 -57v-158q0 -14 8 -22t22 -8v-21h-128l1 21q13 0 21 8t8 22v521q0 20 -17 20q-8 0 -13 -4l-6 17l122 80l6 -19q-16 -11 -20 -29
t-4 -44v-313q31 21 59.5 47t50 57t34.5 66t13 73q0 52 -13 90t-34 63t-48 36.5t-56 11.5q-30 0 -60 -12.5t-53 -36.5t-37.5 -58.5t-14.5 -77.5q0 -14 4.5 -29t12.5 -28t17.5 -21.5t20.5 -9.5l-51 -58q-32 28 -48 66t-16 80z" />
    <glyph glyph-name="R" unicode="R" horiz-adv-x="474" 
d="M10 464q0 61 20.5 107.5t54 77.5t75 46.5t83.5 15.5q36 0 69 -11.5t58.5 -34t40.5 -56.5t15 -79q0 -60 -24 -111t-64 -92q21 -35 38 -79.5t32 -91t30 -91.5t32.5 -80.5t39.5 -57t51 -21.5q26 0 44 13l6 -79q-18 -3 -35 -3q-51 0 -86 23t-59 61t-41 85.5t-31.5 97.5
t-30.5 97t-38 83q-14 -11 -28.5 -20t-29.5 -17v-277q0 -14 8 -22t22 -8v-21h-128v21q14 0 22 8t8 22v522q0 9 -5 14t-12 5q-8 0 -13 -4l-6 17l121 80l6 -19q-16 -11 -19.5 -29t-3.5 -44v-189q27 18 50.5 40t41 48t27.5 56t10 63q0 29 -9.5 51t-26 36.5t-38 22t-45.5 7.5
q-29 0 -59 -11.5t-54 -34.5t-39 -57.5t-15 -79.5q0 -14 4 -28t11.5 -26t17 -20t21.5 -11l-55 -63q-32 29 -48 67t-16 81z" />
    <glyph glyph-name="T" unicode="T" horiz-adv-x="474" 
d="M152 267q-50 0 -84 30t-48.5 75.5t-7 98t40 98t91.5 75.5t149 30q28 0 56.5 -3.5t56.5 -8t56 -8t57 -3.5q23 0 45.5 4.5t40.5 14t29 23.5t11 32l58 -48q-39 -47 -81.5 -65.5t-102.5 -18.5q-27 0 -53.5 3t-52.5 7v-633q0 -14 8.5 -22t22.5 -8v-21h-129l1 21q14 0 21.5 8
t7.5 22v643q-26 3 -52 3q-70 0 -116.5 -21.5t-72.5 -54t-33 -70t1 -70t29 -54t51 -21.5t46.5 14.5t21 32.5t-1.5 34.5t-21 20.5l69 32q16 -33 15 -67t-16.5 -62t-44.5 -45.5t-68 -17.5z" />
    <glyph glyph-name="V" unicode="V" horiz-adv-x="614" 
d="M10 478q0 40 13 74.5t37 59.5t57.5 39t74.5 14q44 0 81.5 -20t64.5 -52t42.5 -73t15.5 -83q0 -38 -6.5 -72t-15 -67t-15 -65t-6.5 -65q0 -32 9.5 -65.5t27 -63t43.5 -51.5t59 -31v281q0 43 -0.5 92t3.5 98.5t14 96.5t31.5 85t56.5 65t88 37l14 -78q-45 7 -73 -17.5
t-43.5 -66.5t-21 -93t-5.5 -96l1 -474q-61 0 -110.5 20.5t-85 58t-54.5 89t-19 113.5q0 38 6.5 70.5t15 64t15 64t6.5 70.5q0 28 -10 57.5t-28.5 52.5t-44 38t-56.5 15q-56 0 -86.5 -34t-30.5 -88q0 -22 6 -44t18.5 -39.5t31 -28.5t43.5 -11q18 0 35 12.5t15 39.5l63 -56
q-18 -29 -48.5 -45t-64.5 -16q-38 0 -68.5 16t-51.5 42.5t-32.5 60t-11.5 69.5z" />
    <glyph glyph-name="S" unicode="S" horiz-adv-x="407" 
d="M387 127q0 -50 -16.5 -87.5t-43.5 -62t-61 -37t-70 -12.5q-35 0 -68.5 12t-59.5 36t-42 59.5t-16 83.5q0 40 12 69.5t31.5 49t44 29.5t48.5 10q21 0 40 -7t33.5 -20.5t23 -33.5t8.5 -47q0 -35 -20 -66t-51 -48l-34 60q24 2 34.5 18t10.5 36q0 24 -13 36t-31 12
q-13 0 -26 -6t-24 -18.5t-18 -31.5t-7 -44q0 -32 11 -56t28.5 -40.5t40 -24.5t46.5 -8t47 8.5t41.5 25.5t29.5 43.5t11 61.5q0 40 -16.5 76.5t-41.5 70.5t-54.5 66.5t-54.5 64.5t-41.5 64.5t-16.5 67.5q0 25 9 45.5t24.5 35.5t35.5 23t43 8q18 0 36.5 -5.5t35.5 -17.5
q4 -2 9 -2.5t5 5.5v16h21v-126h-21v8q0 13 -8 25t-20.5 21t-27.5 14t-30 5q-21 0 -36.5 -13t-15.5 -42q0 -23 16.5 -49.5t41.5 -56.5t54.5 -64t54.5 -71.5t41.5 -80t16.5 -88.5z" />
    <glyph glyph-name="K" unicode="K" horiz-adv-x="666" 
d="M10 450q0 47 18 85.5t49 66t72 42.5t87 15h188v-21q-14 0 -22 -8t-8 -22v-340q40 9 66.5 42t45.5 77t34 92.5t33.5 89.5t43.5 67.5t64 26.5q55 0 84 -46l-55 -52q-2 14 -11.5 23.5t-17.5 9.5q-15 0 -26 -14t-21 -37t-19.5 -53.5t-21 -63.5t-26 -66.5t-33.5 -62.5
q6 -20 17 -59.5t25.5 -86t32.5 -95.5t38 -89t42.5 -65.5t46.5 -25.5q34 0 48 27l45 -59q-18 -16 -43 -24.5t-49 -8.5q-36 0 -66 22t-55 58.5t-45 82.5t-36 93.5t-28.5 92.5t-22.5 80q-19 -16 -41 -26.5t-49 -15.5v-232q0 -14 8 -22t22 -8v-21h-128v21q14 0 22 8t8 22v635
h-61q-37 0 -72.5 -8t-63 -26.5t-44.5 -48t-17 -72.5q0 -40 22 -67.5t64 -27.5q25 0 39 13t18.5 29.5t-1 31.5t-20.5 18l68 36q19 -31 19.5 -64t-14.5 -60t-43 -44.5t-66 -17.5q-33 0 -59.5 12t-45.5 32.5t-29 48.5t-10 60z" />
    <glyph glyph-name="F" unicode="F" horiz-adv-x="416" 
d="M32 494q-23 31 -21.5 70t22.5 73t60 57t90 23q47 0 92.5 -10.5t89.5 -23.5t88 -23.5t89 -10.5q22 0 40.5 5.5t30 15.5t13.5 23t-10 27l73 -1q9 -30 -1.5 -54t-33 -40.5t-52.5 -25.5t-60 -9q-40 0 -79 8.5t-78 19.5t-77.5 21.5t-78.5 15.5v-288l46 36q9 -12 24.5 -22
t34.5 -16.5t40.5 -9t41.5 -0.5l-50 -53q-36 0 -74.5 12.5t-62.5 41.5v-386q0 -14 8 -22t22 -8v-21h-128v21q14 0 22 8t8 22v686q-32 -5 -53.5 -21t-30.5 -35t-3.5 -38t27.5 -29l-69 -39v0z" />
    <glyph glyph-name="H" unicode="H" horiz-adv-x="673" 
d="M154 283q-33 0 -59.5 12t-45.5 32.5t-29 48.5t-10 60q0 47 18 85.5t49 66t72 42.5t87 15h180v-21q-14 0 -22 -8t-8 -21v-284q49 -3 90 -20.5t79 -48.5v353q0 13 -8 21t-22 8v21h128v-21q-14 0 -22 -8t-8 -21v-625q0 -14 8 -22t22 -8v-21h-128v21q14 0 22 8t8 22v224
l-15 -17q-35 32 -71.5 51.5t-82.5 23.5v-282q0 -14 8 -22t22 -8v-21h-128l1 21q13 0 21 8t8 22v275q-29 -11 -46 -37t-12 -62l-71 23q8 56 43 92t86 47v283h-53q-37 0 -72.5 -8t-63 -26.5t-44.5 -48t-17 -72.5q0 -40 22 -67.5t64 -27.5q25 0 39 13t18.5 29.5t-1 31.5
t-20.5 18l68 37q19 -31 19.5 -64t-14.5 -60.5t-43 -45t-66 -17.5z" />
    <glyph glyph-name="h" unicode="h" horiz-adv-x="409" 
d="M20 21q14 0 22 8t8 22v443q0 14 -8 22t-22 8v21h128v-21q-14 0 -22 -8t-8 -22v-104q40 33 86 33q44 0 87 -32v103q0 14 -8 22t-22 8v21h128v-21q-14 0 -22 -8t-8 -22v-443q0 -14 8 -22t22 -8v-21h-128v21q14 0 22 8t8 22v288l-9 -14q-36 38 -77 38q-40 0 -75 -38l-12 17
v-291q0 -14 8 -22t22 -8v-21h-128v21z" />
    <glyph glyph-name="r" unicode="r" horiz-adv-x="374" 
d="M20 545h98v-38q21 23 47.5 36.5t59.5 13.5q60 0 92.5 -39.5t32.5 -96.5q0 -51 -24 -95.5t-62 -82.5l66 -192q5 -13 15 -21.5t24 -8.5v-21h-137v21q14 0 24.5 8.5t5.5 21.5l-50 145q-23 -19 -47 -34.5t-47 -29.5v-81q0 -14 8 -22t22 -8v-21h-128v21q14 0 22 8t8 22v443
q0 14 -8 22t-22 8v21zM118 208q29 19 58.5 42.5t53.5 50.5t39.5 57.5t15.5 62.5q0 30 -13.5 50.5t-46.5 20.5q-28 0 -49 -17.5t-23 -46.5l-35 20v-240z" />
    <glyph glyph-name="B" unicode="B" horiz-adv-x="523" 
d="M10 80q0 52 15.5 90t41 63.5t58 38.5t66.5 15v205q0 9 -5 14t-12 5t-14 -4l-5 17l121 80l6 -19q-16 -11 -20 -29t-4 -44v-142q8 3 14.5 6.5t14.5 7.5q17 10 32 25.5t26.5 34t18 38.5t6.5 40q0 53 -29 85t-83 32q-38 0 -67.5 -14.5t-49.5 -39t-30.5 -56.5t-10.5 -67
q0 -15 4.5 -30t12.5 -27t19 -20t23 -8l-55 -62q-32 29 -48 66.5t-16 80.5q0 48 15 91t43.5 75.5t69 51.5t90.5 19q39 0 71 -13t54.5 -36.5t34.5 -56t12 -71.5q0 -38 -17 -78t-43 -67q58 -40 95.5 -98.5t37.5 -131.5q0 -60 -18 -112.5t-52.5 -91.5t-84 -61.5t-112.5 -22.5
q-47 0 -88.5 16.5t-72 46t-48 70t-17.5 88.5zM258 279q49 -13 82.5 -48t33.5 -89q0 -29 -12 -60l-73 25q12 5 18 15.5t6 24.5q0 24 -15.5 42t-39.5 28v-197q0 -13 8.5 -21t22.5 -8v-21h-129l1 21q14 0 22 8t8 21v207q-23 -2 -44.5 -11t-38.5 -27t-27.5 -45t-10.5 -64
q0 -36 13 -65.5t35.5 -50.5t52.5 -33t65 -12q50 0 88.5 18t65 48.5t40 72t13.5 89.5q0 31 -9.5 58.5t-26 51.5t-38.5 44t-47 36q-15 -10 -31 -17.5t-33 -14.5v-26z" />
    <glyph glyph-name="C" unicode="C" horiz-adv-x="459" 
d="M471 -140q-107 2 -189 39.5t-138.5 97.5t-89 136t-41 155t6 154t51 134t95 95t137.5 36q54 0 88.5 -23t51 -57.5t15 -74.5t-19 -74.5t-51.5 -57.5t-83 -23q-29 0 -59.5 12t-48.5 37l61 57q0 -23 16 -32.5t31 -9.5q27 0 47 13.5t31 33.5t12.5 44t-8 44t-30 33.5
t-53.5 13.5q-63 0 -109.5 -30.5t-75.5 -81t-39 -114.5t-1.5 -131t37 -131.5t78 -115.5t120 -82.5t162.5 -32.5q14 0 16 14.5t-5 26.5h20l29 -133l-21 1q-2 11 -13.5 19t-25.5 8h-4v0z" />
    <glyph glyph-name="D" unicode="D" horiz-adv-x="609" 
d="M260 273q47 -14 79.5 -49.5t32.5 -93.5q0 -25 -9 -52l-73 27q20 24 20 47q0 20 -14 35.5t-36 23.5v-190q0 -14 8 -22t22 -8v-21h-128v21q28 0 30 28v202q-23 -2 -45 -10.5t-39 -24.5t-27.5 -40t-10.5 -57q0 -80 48 -124t126 -44q59 0 107.5 31t84.5 81.5t58 115t28 131.5
t-3.5 131.5t-38 115t-75.5 81.5t-115 31q-39 0 -73.5 -13t-60.5 -37t-41 -57.5t-15 -73.5q0 -29 15 -55.5t44 -30.5l-55 -60q-32 28 -48 66t-16 80q0 52 20 96.5t54 76.5t79.5 50t96.5 18q71 0 124.5 -26.5t89.5 -71t55.5 -103.5t23.5 -124.5t-6.5 -133t-34.5 -129.5
t-60.5 -114t-85.5 -86q-33 -23 -71.5 -36.5t-80.5 -13.5q-51 0 -94 16t-74 46t-48.5 72t-17.5 94q0 47 15.5 82t41 59t58.5 36.5t67 14.5v210q0 10 -5 15t-13 5q-7 0 -12 -4l-6 17l121 80l6 -19q-15 -10 -19 -26.5t-4 -40.5v-245v0z" />
    <glyph glyph-name="E" unicode="E" horiz-adv-x="485" 
d="M32 494q-23 31 -21.5 70t22.5 73t60 57t90 23q47 0 92.5 -10.5t89.5 -23.5t88 -23.5t89 -10.5q22 0 40.5 5.5t30 15.5t13.5 23t-10 27l73 -1q9 -30 -1.5 -54t-33 -40.5t-52.5 -25.5t-60 -9q-38 0 -74.5 7.5t-73 17.5t-73 20.5t-73.5 16.5v-334l59 40q11 -14 31 -25
t44.5 -18t51.5 -9.5t53 -0.5l-64 -59q-46 0 -95.5 14.5t-80.5 46.5l1 -337q33 -11 63 -31t60 -39.5t62 -33.5t68 -14q13 0 27.5 2.5t25.5 9t17 18t1 28.5l74 -6q-2 -29 -15 -49.5t-33.5 -34t-46 -20t-50.5 -6.5q-29 0 -56 8t-53.5 20t-51 27t-48.5 29q-17 11 -38.5 23
t-41.5 17q-3 1 -10 1h-52v21q14 0 22 8t8 22v688q-36 -1 -62 -16.5t-37.5 -35.5t-7.5 -41t28 -32l-69 -39v0z" />
    <glyph glyph-name="G" unicode="G" horiz-adv-x="482" 
d="M241 -65q-64 0 -109.5 31t-73.5 81t-39 114.5t-7.5 132t21 132t48.5 114.5t73.5 81t95.5 31q36 0 67.5 -12t54 -33.5t35.5 -52t13 -67.5q0 -24 -7.5 -51.5t-25.5 -44.5l-64 53q15 6 23.5 20t8.5 29q0 48 -29.5 71t-75.5 23q-37 0 -67.5 -25t-53 -66.5t-36 -94t-17 -108
t4 -108t27.5 -94t53 -66.5t80 -25q36 0 60 24t38.5 58.5t21 72.5t6.5 65q0 6 -0.5 12.5t-0.5 12.5h-86l16 65h166v-33q-17 -2 -23.5 -12t-7.5 -20q1 -6 1 -12v-13q5 -67 14 -133.5t9 -133.5q0 -53 -15 -100t-44.5 -82t-73 -55t-100.5 -20q-39 0 -74.5 13.5t-63 38t-43.5 58
t-16 74.5q0 46 24 82l71 -40q-13 -2 -21.5 -15.5t-8.5 -30.5q0 -26 11.5 -47t30.5 -36t42.5 -23.5t47.5 -8.5q43 0 74.5 15t52.5 41t31 61t10 75q0 20 -1 39t-3 39q-23 -42 -58.5 -69t-86.5 -27z" />
    <glyph glyph-name="J" unicode="J" horiz-adv-x="448" 
d="M410 141q0 -75 -19 -129t-49.5 -89t-69 -51.5t-77.5 -16.5q-36 0 -69 13t-59 38t-41.5 61t-15.5 83q0 40 11.5 76t33 63t51.5 43t67 16q33 0 71 -15l-31 -88q-22 33 -54 33q-16 0 -31 -8.5t-27 -24.5t-19.5 -39t-7.5 -53q0 -31 10.5 -55.5t27.5 -42t39.5 -26.5t46.5 -9
q27 0 53 12.5t47 39t34 68.5t13 101v439q-23 -11 -47 -22.5t-43.5 -26t-32 -35t-12.5 -49.5q0 -20 9 -30t21 -10q15 0 29 15l24 -70q-26 -15 -51 -15q-20 0 -37.5 8.5t-31 23.5t-21 35t-7.5 43q0 41 17.5 70.5t43.5 50t56 35.5t56 27.5t43.5 25t17.5 29.5l46 -32
q-4 -16 -15 -28v-484v0z" />
    <glyph glyph-name="L" unicode="L" horiz-adv-x="324" 
d="M88 456q-32 0 -55 21.5t-23 53.5q0 34 17.5 56t44 34.5t57 18t57.5 5.5h98v-21q-14 0 -22 -8t-8 -21v-619q33 -11 63 -31t60 -39t62 -33t68 -14q13 0 27.5 2.5t25.5 9t17 17.5t1 28l75 -12q-2 -29 -15 -49.5t-33.5 -34t-46 -20t-51.5 -6.5q-29 0 -56 8t-53.5 20t-51 27
t-48.5 29q-17 11 -38 23t-41 17q-4 1 -10 1h-53v21q14 0 22 8t8 22v625q-16 0 -37.5 -3t-41 -9.5t-33.5 -19t-14 -32.5q0 -11 8.5 -18t19.5 -7q19 0 19 23l56 -28q-14 -20 -32.5 -32.5t-42.5 -12.5z" />
    <glyph glyph-name="M" unicode="M" horiz-adv-x="735" 
d="M144 272q-49 0 -80.5 26.5t-44.5 67t-6.5 87t34 87t76 67t120.5 26.5q54 0 95 -24t70.5 -62t49 -86t30.5 -97q17 54 39.5 106t50.5 93.5t62 67t75 25.5q28 0 49 -12.5t38 -32.5l-51 -51q0 17 -12 24t-24 7q-18 0 -35 -11v-473q0 -27 1 -61t8 -64.5t23.5 -51.5t48.5 -21
l-47 -66q-34 16 -54 42t-30.5 57.5t-14 66.5t-3.5 68v420q-23 -42 -42 -94.5t-33 -102.5t-24 -92.5t-15 -65.5q-4 -32 -12 -62.5t-20 -62.5l-71 29q12 12 20 32t13.5 45t8 52t2.5 52q0 29 -5.5 73t-19 89.5t-35.5 87t-56 66.5v-513q0 -26 -6 -51.5t-19 -46t-34 -33
t-51 -12.5q-35 0 -58.5 20t-30.5 45l61 43q0 -43 28 -43q15 0 23.5 9.5t12.5 23t4.5 28t0.5 25.5v530h-11q-53 0 -87.5 -17t-53.5 -43t-24.5 -56t0.5 -56t21.5 -43t37.5 -17q10 0 23 5l-16 -69v0z" />
    <glyph glyph-name="N" unicode="N" horiz-adv-x="607" 
d="M149 338q-63 7 -101 48.5t-38 104.5q0 33 11.5 60t32 46.5t48 30.5t59.5 11q54 0 103.5 -25t92 -66t76 -94.5t56.5 -110.5v225q0 14 -8 22t-22 8v20h128v-20q-14 0 -22 -8t-8 -22v-598q0 -14 8 -22t22 -8v-21h-128v21q14 0 22 8t8 22v55q-15 -15 -36 -23.5t-48 -8.5
q-38 0 -61 23.5t-26 52.5l65 27q-5 -16 1 -27t21 -11q35 0 50.5 27t15.5 69.5t-15 95.5t-41.5 106t-62.5 100t-78 77v-503q0 -28 -5.5 -53.5t-18 -45.5t-33.5 -32t-51 -12q-35 0 -59 20t-30 45l65 48q-4 -20 2.5 -34t21.5 -14t23 9.5t12 23t4.5 28t0.5 25.5v529q-11 3 -22 5
t-23 2q-37 0 -61.5 -22.5t-24.5 -60.5q0 -32 18 -55t44 -23q15 0 31 10l-19 -85v0z" />
    <glyph glyph-name="O" unicode="O" horiz-adv-x="514" 
d="M249 -96q-53 0 -94 25t-70.5 66t-47 94t-24 108.5t-1.5 109t22 96.5q-1 6 -1.5 12.5t-0.5 13.5q0 48 15.5 90t44 73.5t68.5 49.5t89 18q60 0 105 -32.5t75 -85.5t45 -121t14.5 -139t-15.5 -139t-45 -121t-74.5 -85.5t-104.5 -32.5zM172 261q-30 0 -54 11t-41 31
q-5 -52 3 -111t29.5 -108.5t56.5 -82t83 -32.5q43 0 75.5 27t54.5 71t33 100t11 115t-10.5 115t-32.5 100t-54.5 71t-76.5 27q-36 0 -64 -13t-47.5 -35.5t-30 -53t-10.5 -64.5q0 -17 4 -35t13 -33t23.5 -25t34.5 -10q35 0 54.5 22t15.5 57l76 -23q-14 -54 -51.5 -87.5
t-94.5 -33.5z" />
    <glyph glyph-name="Q" unicode="Q" horiz-adv-x="518" 
d="M153 -70q-51 30 -83.5 88t-47.5 125.5t-12 136.5t24 123q-1 6 -1.5 12.5t-0.5 13.5q0 48 15.5 90t44 73.5t68.5 49.5t89 18q71 0 121.5 -45t79 -115t36 -155.5t-5.5 -166.5t-47.5 -148t-89.5 -100q25 -14 48 -27t46 -13q18 0 36 8t18 26l38 -64q-25 -19 -48 -26t-43 -7
q-30 0 -55 12t-47.5 26.5t-43.5 26.5t-43 12q-36 0 -55 -12.5t-23.5 -28.5t2.5 -30t23 -18l-49 -58q-22 10 -33.5 31.5t-11.5 47t12 51t39 43.5zM172 261q-30 0 -54 11t-41 31q-5 -52 3 -111t29.5 -108.5t56.5 -82t83 -32.5q43 0 75.5 27t54.5 71t33 100t11 115t-10.5 115
t-32.5 100t-54.5 71t-76.5 27q-36 0 -64 -13t-47.5 -35.5t-30 -53t-10.5 -64.5q0 -17 4 -35t13 -33t23.5 -25t34.5 -10q35 0 54.5 22t15.5 57l76 -23q-14 -54 -51.5 -87.5t-94.5 -33.5z" />
    <glyph glyph-name="W" unicode="W" horiz-adv-x="813" 
d="M10 426q0 48 18 88t48 69.5t69.5 45.5t82.5 16h153l-1 -21q-24 0 -21 -28l81 -509q15 48 32 105.5t31.5 111.5t24 98t9.5 66q0 10 -1 15l-1 13q-1 6 -4.5 14.5t-8.5 16t-11.5 13t-13.5 5.5v21h76l7 -21q8 -18 11.5 -38t3.5 -39q0 -23 -7.5 -62.5t-19.5 -87.5l69 -229
l89 507q5 28 -21 28v21h127v-21q-14 0 -25.5 -7t-13.5 -21l-115 -622v-4q0 -14 8.5 -22t22.5 -8v-21h-129l1 21q26 0 29 25l-73 240q-11 -36 -21.5 -71t-20 -65.5t-17.5 -56t-14 -42.5q0 -14 8 -22t22 -8v-21h-128l1 21q13 0 21 8t8 22v8l-104 615h-59q-30 0 -59.5 -10
t-53 -31t-38 -52.5t-14.5 -73.5q0 -20 5 -38t15.5 -32t26.5 -22.5t38 -8.5q29 0 45 14t20.5 31t-2 33t-22.5 21l69 32q20 -29 20 -62t-16 -61t-45.5 -47t-68.5 -19q-34 0 -60.5 13t-45 34.5t-28 50.5t-9.5 61z" />
    <glyph glyph-name="Y" unicode="Y" horiz-adv-x="603" 
d="M10 426q0 48 17.5 88t46.5 69.5t66 45.5t76 16h100l-1 -21q-14 0 -16.5 -8.5t2.5 -20.5l116 -246l116 246q6 12 3 20.5t-17 8.5v21h131l-1 -21q-14 0 -27 -6t-21 -23l-150 -318v-307q0 -14 8 -22t22 -8v-21h-128v21q14 0 22 8t8 22v307l-149 316h-13q-26 0 -53.5 -10
t-49.5 -31t-36 -52.5t-14 -73.5q0 -20 5 -38t15.5 -32t26.5 -22.5t38 -8.5q29 0 45 14t20.5 31t-2 33t-22.5 21l69 32q20 -29 20 -62t-16 -61t-45.5 -47t-68.5 -19q-34 0 -60.5 13t-45 34.5t-28 50.5t-9.5 61z" />
    <glyph glyph-name="Z" unicode="Z" horiz-adv-x="529" 
d="M123 423q-30 8 -49.5 29.5t-26.5 50t-1.5 59.5t24.5 56.5t51.5 42.5t79.5 17q36 0 70 -9.5t68 -20.5t69 -20.5t71 -9.5q29 0 57 14l19 -23l-37 -52l-158 -234q10 -3 22 -3q14 0 26 9t12 26l56 -53q-15 -23 -41 -35t-53 -12q-30 0 -59 13l-192 -286q28 -8 57 -18.5
t58.5 -20t60 -16.5t61.5 -7q21 0 39 4t30.5 12t17.5 19.5t-1 25.5l76 -4q0 -30 -16 -52.5t-40 -38t-52.5 -23.5t-53.5 -8q-41 0 -80.5 10.5t-77 23.5t-72 23.5t-65.5 10.5q-13 0 -26 -2.5t-24 -10.5l-13 14q10 11 22 29t20 29l213 316q-23 13 -36 13q-7 0 -13.5 -3.5
t-11 -8.5t-5 -11t4.5 -11l-74 29q9 32 37.5 51t61.5 19q20 0 37.5 -7.5t34.5 -17.5l138 204q-33 4 -64 14t-61 19.5t-58 17t-55 7.5q-42 0 -64.5 -19t-27.5 -41.5t7 -39.5t39 -14l-32 -76v0z" />
    <glyph glyph-name="X" unicode="X" horiz-adv-x="610" 
d="M153 267q-34 0 -60.5 13t-45 34.5t-28 50.5t-9.5 61q0 48 17.5 88t46.5 69.5t66 45.5t76 16h114l-1 -21q-14 0 -21.5 -7t-1.5 -21l106 -232l109 237q3 11 -4.5 17t-20.5 6v21h127v-21q-14 0 -20.5 -6.5t-14.5 -21.5l-141 -307l80 -174q8 -19 21 -46t29.5 -56t36 -58
t42 -52t46.5 -37t50 -14q5 0 12.5 1.5t14 4.5t11 8t4.5 11l23 -74q-14 -6 -32 -10t-33 -4q-35 0 -66.5 15t-59 40t-51.5 57t-43.5 66t-35.5 66.5t-28 59.5l-56 121l-38 -84q-15 -33 -34 -73.5t-44.5 -76t-59 -59.5t-76.5 -24q-31 0 -54.5 18t-37.5 44l64 37q0 -15 7.5 -25.5
t21.5 -10.5q22 0 42.5 15.5t37 37t29.5 45.5t21 42l87 189l-139 304h-18q-24 0 -51 -10t-49.5 -31t-37.5 -52.5t-15 -73.5q0 -20 5 -38t15.5 -32t26.5 -22.5t38 -8.5q29 0 45 14t20.5 31t-2 33t-22.5 21l69 32q20 -29 20 -62t-16 -61t-45.5 -47t-68.5 -19z" />
    <glyph glyph-name="period" unicode="." horiz-adv-x="130" 
d="M24 35q0 17 12 29.5t29 12.5t29 -12.5t12 -29.5t-12 -29t-29 -12t-29 12t-12 29z" />
    <glyph glyph-name="bracketleft" unicode="[" horiz-adv-x="141" 
d="M111 595v-50h-34v-576h34v-50h-101v676h101z" />
    <glyph glyph-name="parenleft" unicode="(" horiz-adv-x="226" 
d="M10 276q0 47 8 98t27 97.5t51 84t79 58.5l24 -69q-33 -2 -56.5 -28t-39.5 -65.5t-23.5 -86.5t-7.5 -90q0 -44 8.5 -91t25 -87t41.5 -65.5t59 -25.5l-36 -72q-45 22 -76 60.5t-49.5 86t-26.5 98.5t-8 97z" />
    <glyph glyph-name="question" unicode="?" horiz-adv-x="434" 
d="M103 413q-33 14 -50.5 42t-17.5 64q0 39 13.5 68t35 48.5t50 29.5t58.5 10q32 0 63 -11.5t55 -34t39 -57t15 -80.5q0 -39 -12 -66.5t-29.5 -49.5t-38.5 -41t-38.5 -40.5t-29.5 -48t-12 -64.5v-71h-60v87q0 38 12 66t29.5 50.5t38.5 42t38.5 39.5t29.5 43t12 53
q0 31 -10 54.5t-25.5 39t-35.5 23t-41 7.5q-18 0 -35.5 -6.5t-31 -18.5t-22 -30t-8.5 -42q0 -15 12.5 -27.5t34.5 -12.5zM136 29q0 17 12.5 29.5t29.5 12.5t29 -12.5t12 -29.5t-12 -29.5t-29 -12.5t-29.5 12.5t-12.5 29.5z" />
    <glyph glyph-name="exclam" unicode="!" horiz-adv-x="168" 
d="M47 595q-1 13 -7.5 24t-9.5 11v15h109v-15q-3 0 -10 -11t-8 -24l-10 -475h-54l-8 437zM41 29q0 17 12.5 29.5t29.5 12.5t29.5 -12.5t12.5 -29.5t-12.5 -29.5t-29.5 -12.5t-29.5 12.5t-12.5 29.5z" />
    <glyph glyph-name="braceleft" unicode="{" horiz-adv-x="189" 
d="M10 291q7 -4 14 -4q11 0 17.5 13t9 32.5t2.5 43t-1.5 45.5t-3 39t-1.5 24q0 63 26.5 87.5t83.5 24.5l2 -68q-11 11 -22 11q-14 0 -22 -15.5t-8 -39.5q0 -26 2 -57t1.5 -62.5t-6 -59.5t-20.5 -47q15 -19 20.5 -47t6 -59.5t-1.5 -63t-2 -57.5q0 -24 8 -39t22 -15
q11 0 22 11l-2 -69q-57 1 -83.5 25.5t-26.5 86.5q0 6 1.5 23.5t3 39.5t1.5 46t-2.5 43.5t-9 32.5t-17.5 13q-7 0 -14 -4v66v0z" />
    <glyph glyph-name="at" unicode="@" horiz-adv-x="513" 
d="M269 -52q-62 0 -109 28t-78 73.5t-46.5 103.5t-15.5 118.5t15.5 118.5t46.5 103.5t78 73.5t109 28q57 0 97.5 -26.5t66.5 -67.5t38 -91.5t12 -98.5q0 -34 -5.5 -65.5t-16.5 -56t-26.5 -39t-34.5 -14.5q-34 0 -55 24q-12 -33 -35 -55.5t-62 -22.5q-41 0 -67.5 28.5
t-38.5 72t-10.5 93.5t15.5 93.5t40 72t64 28.5q33 0 58 -19v15h55v-121v-22.5t1 -31.5v-8q1 -17 3 -33t5.5 -29.5t10 -21.5t16.5 -8q6 0 11.5 9t9 24t6 35t2.5 41q0 37 -8 79.5t-26.5 78t-49.5 59t-76 23.5q-49 0 -85 -23t-60.5 -61t-36.5 -86t-12 -98.5t12 -98.5t36.5 -86
t60.5 -61t85 -23q28 0 51 8t38 22t21 32.5t1 38.5l69 -15q-3 -35 -19.5 -61t-41 -44t-55.5 -27t-64 -9zM251 415q-19 0 -33 -20.5t-21.5 -51.5t-9 -67t4.5 -67t19.5 -51.5t36.5 -20.5q21 0 33.5 17.5t18.5 41t8 48t2 39.5v7q-1 8 -1 16v15v34q-3 10 -8 20.5t-12 19.5
t-16.5 14.5t-21.5 5.5z" />
    <glyph glyph-name="numbersign" unicode="#" horiz-adv-x="516" 
d="M22 215h73l51 119h-82l22 55h84l68 156h65l-68 -156h124l67 156h66l-68 -156h60l-22 -55h-62l-51 -119h70l-22 -55h-72l-70 -160h-65l70 160h-124l-69 -160h-65l69 160h-71zM283 215l52 119h-123l-52 -119h123z" />
    <glyph glyph-name="ampersand" unicode="&#x26;" horiz-adv-x="506" 
d="M373 27q-29 -31 -66 -46t-76 -15t-77 15.5t-68 45.5t-48 75t-18 104q0 60 28.5 110.5t73.5 88.5q-17 48 -17 92q0 42 12.5 72t33.5 49.5t47 29t53 9.5q25 0 49 -8t42.5 -23.5t30 -38t11.5 -51.5q0 -37 -19 -64.5t-54 -40.5l-41 72q20 -6 34.5 5t14.5 28q0 26 -21 41.5
t-48 15.5q-15 0 -29 -5.5t-25.5 -17t-18.5 -30t-7 -43.5q0 -42 20.5 -90.5t50 -96.5t62.5 -91.5t59 -75.5q8 30 8 63t-10 58.5t-24.5 44.5t-30 32t-26.5 20v21h178v-65h-52q14 -26 22 -54t8 -57q0 -70 -25 -123q7 -8 14.5 -17.5t18.5 -22.5q4 -5 11 -11t15 -11.5t16 -9.5
t13 -4l-66 -54zM85 206q0 -43 12.5 -76t33.5 -55t47.5 -33.5t53.5 -11.5t53 12t46 36l-17 21q-19 24 -41 52t-44 59t-43 64t-38 67q-27 -27 -45 -60.5t-18 -74.5z" />
    <glyph glyph-name="hyphen" unicode="-" horiz-adv-x="294" 
d="M20 344h254v-59h-254v59z" />
    <glyph glyph-name="plus" unicode="+" horiz-adv-x="315" 
d="M20 344h108v108h60v-108h108v-59h-108v-108h-60v108h-108v59z" />
    <glyph glyph-name="slash" unicode="/" horiz-adv-x="361" 
d="M275 545h66l-255 -545h-66z" />
    <glyph glyph-name="bar" unicode="|" horiz-adv-x="112" 
d="M30 636h51v-748h-51v748z" />
    <glyph glyph-name="parenright" unicode=")" horiz-adv-x="226" 
d="M20 6q34 0 59 25.5t41.5 65.5t25 87t8.5 91q0 43 -7.5 90t-23.5 86.5t-39.5 65.5t-56.5 28l24 69q47 -21 79 -58.5t51 -84t27 -97.5t8 -98q0 -46 -8 -97t-26.5 -98.5t-49.5 -86t-76 -60.5z" />
    <glyph glyph-name="braceright" unicode="}" horiz-adv-x="189" 
d="M31 596q57 0 83.5 -24.5t26.5 -87.5q0 -7 -1.5 -24t-2.5 -39t-1.5 -45.5t2.5 -43t9 -32.5t18 -13q7 0 14 4v-66q-7 4 -14 4q-12 0 -18 -13t-9 -32.5t-2.5 -43.5t1.5 -46t2.5 -39.5t1.5 -23.5q0 -62 -26.5 -86.5t-83.5 -25.5l-1 69q11 -11 22 -11q13 0 21 15t8 39
q0 26 -2 57.5t-1.5 63t6 59.5t21.5 47q-16 19 -21.5 47t-6 59.5t1.5 62.5t2 57q0 24 -8 39.5t-21 15.5q-11 0 -22 -11z" />
    <glyph glyph-name="bracketright" unicode="]" horiz-adv-x="141" 
d="M64 -31v576h-34v50h101v-676h-101v50h34z" />
    <glyph glyph-name="comma" unicode="," horiz-adv-x="113" 
d="M5 -19q17 -1 29.5 4.5t20.5 13.5q-14 1 -23.5 11t-9.5 24q0 15 10.5 25.5t24.5 10.5q15 0 25.5 -10.5t10.5 -25.5q0 -4 -2 -12q-8 -20 -27.5 -36t-40.5 -35l-18 30v0z" />
    <glyph glyph-name="asterisk" unicode="*" horiz-adv-x="247" 
d="M20 563l28 46l8 -5q-1 -1 3.5 -6.5t11.5 -10.5l35 -25l-2 43q-1 8 -3 15t-4 7v9h53v-9q-2 0 -4 -7t-3 -15l-2 -43l35 25q7 5 11.5 10.5t3.5 6.5l8 5l28 -46l-8 -5q-1 2 -7 1t-14 -5l-42 -23l40 -22q8 -4 15 -5.5t8 0.5l8 -5l-28 -46l-8 5q1 2 -3.5 7.5t-11.5 10.5l-35 24
l2 -42q1 -8 3 -15t4 -7v-10h-53v10q2 0 4 7t3 15l2 42l-35 -24q-7 -5 -11.5 -10.5t-3.5 -7.5l-8 -5l-28 46l8 5q1 -2 8 -0.5t15 5.5l40 22l-42 23q-8 4 -14 5t-7 -1z" />
    <glyph glyph-name="asciicircum" unicode="^" horiz-adv-x="371" 
d="M27 310l1 20q11 0 16.5 6t14.5 24l93 185h61l93 -185q9 -18 14.5 -24t16.5 -6v-20h-73l-82 171l-81 -171h-74z" />
    <glyph glyph-name="asciitilde" unicode="~" horiz-adv-x="414" 
d="M20 272q21 31 51 51.5t69 20.5q24 0 43 -8.5t35 -19t29 -19t26 -8.5q26 0 42 15t17 35l62 -43q-21 -32 -51 -52t-70 -20q-23 0 -41 8.5t-33 19t-29 19t-30 8.5q-20 0 -37 -15t-18 -32z" />
    <glyph glyph-name="quotesingle" unicode="'" horiz-adv-x="108" 
d="M20 645h68l-19 -145h-34z" />
    <glyph glyph-name="less" unicode="&#x3c;" horiz-adv-x="296" 
d="M30 272v61l185 114q17 11 26 17t9 14l16 1v-76l-181 -101l181 -101v-75h-16q0 8 -9 14t-26 17z" />
    <glyph glyph-name="equal" unicode="=" horiz-adv-x="315" 
d="M20 216v59h276v-59h-276zM20 389h276v-59h-276v59z" />
    <glyph glyph-name="percent" unicode="%" horiz-adv-x="425" 
d="M11 430q0 21 5 42.5t15.5 39t27.5 28.5t41 11t41 -11t28 -28.5t16 -39t5 -42.5q0 -20 -5 -41.5t-16 -39t-28 -28.5t-41 -11t-41 11t-27.5 28.5t-15.5 39t-5 41.5zM321 -6q-24 0 -41 11.5t-28 29t-16 39t-5 41.5q0 21 5 42.5t16 39t28 28.5t41 11t41 -11t27.5 -28.5
t15.5 -39t5 -42.5q0 -20 -5 -41.5t-15.5 -39t-27.5 -29t-41 -11.5zM328 545h65l-307 -545h-66zM100 493q-10 0 -16 -7t-9.5 -17t-4.5 -21t-1 -18t1 -17.5t4.5 -20.5t9.5 -17t16 -7t16 7t9.5 17t5 20.5t1.5 17.5t-1.5 18t-5 21t-9.5 17t-16 7zM321 178q-10 0 -16 -7t-9.5 -17
t-5 -21t-1.5 -18t1.5 -17.5t5 -20.5t9.5 -17t16 -7t16 7t9.5 17t4.5 20.5t1 17.5t-1 18t-4.5 21t-9.5 17t-16 7z" />
    <glyph glyph-name="greater" unicode="&#x3e;" horiz-adv-x="296" 
d="M211 302l-181 101v76l15 -1q0 -8 9.5 -14t26.5 -17l185 -114v-61l-185 -115q-17 -11 -26.5 -17t-9.5 -14h-15v75z" />
    <glyph glyph-name="dollar" unicode="$" horiz-adv-x="417" 
d="M180 -8q-28 1 -54 12t-46 31t-32 49t-12 67q0 33 11 56.5t30.5 39t46 23t56.5 7.5v62q-36 27 -63.5 55.5t-27.5 63.5q0 40 26.5 66t64.5 30v79h50v-84q24 -7 45 -23q4 -2 8 -2.5t4 5.5v16h21v-126h-21v8q0 21 -17 38.5t-40 26.5v-118q22 -17 44.5 -37t41 -43.5t30 -51
t11.5 -60.5q0 -40 -10.5 -71.5t-27.5 -54.5t-40.5 -38t-48.5 -21v-78h-50v73zM297 182q0 36 -19 64t-48 53v-240q28 12 47.5 42t19.5 81zM98 150q0 -45 25 -69.5t57 -28.5v164q-3 1 -7 1q-41 0 -58 -20.5t-17 -46.5zM149 458q0 -11 8.5 -21.5t22.5 -23.5v85
q-14 -3 -22.5 -12.5t-8.5 -27.5z" />
    <glyph glyph-name="grave" unicode="`" horiz-adv-x="166" 
d="M64 719q4 -16 15 -29t23 -26t24 -28t20 -35l-33 -20q-4 19 -15.5 32.5t-25.5 25.5l-28 24t-24 29z" />
    <glyph glyph-name="backslash" unicode="\" horiz-adv-x="361" 
d="M86 545l255 -545h-66l-255 545h66z" />
    <glyph glyph-name="colon" unicode=":" horiz-adv-x="123" 
d="M20 441q0 17 12 29.5t29 12.5t29.5 -12.5t12.5 -29.5t-12.5 -29t-29.5 -12t-29 12t-12 29zM20 71q0 17 12 29.5t29 12.5t29.5 -12.5t12.5 -29.5t-12.5 -29t-29.5 -12t-29 12t-12 29z" />
    <glyph glyph-name="semicolon" unicode=";" horiz-adv-x="128" 
d="M20 441q0 17 12 29.5t29 12.5t29.5 -12.5t12.5 -29.5t-12.5 -29t-29.5 -12t-29 12t-12 29zM14 -19q17 -1 30 4.5t21 13.5q-14 0 -24 10.5t-10 24.5q0 15 10.5 25.5t24.5 10.5q15 0 25.5 -10.5t10.5 -25.5q0 -4 -2 -12q-8 -20 -27.5 -36t-40.5 -35z" />
    <glyph glyph-name="quotedbl" unicode="&#x22;" horiz-adv-x="198" 
d="M88 645l-19 -145h-34l-15 145h68zM178 645l-20 -145h-33l-15 145h68z" />
    <glyph glyph-name="N.ss01" unicode="&#xe00d;" horiz-adv-x="414" 
d="M20 -60q14 0 22 8t8 22v625q0 13 -8 21t-22 8v21h128v-21q-14 0 -22 -8t-8 -21v-38q0 -47 18 -92.5t44.5 -91t57.5 -92t58 -95.5v409q0 13 -8 21t-22 8v21h128v-21q-14 0 -22 -8t-8 -21v-625q0 -14 8 -22t22 -8v-21h-128v21q14 0 22 8t8 21v14.5t-1 14.5q-3 49 -22 92
t-45 85t-55.5 84t-54.5 90v-379q0 -14 8 -22t22 -8v-21h-128v21z" />
    <glyph glyph-name="u.ss01" unicode="&#xe026;" horiz-adv-x="375" 
d="M15 545h128v-21q-14 0 -22 -8t-8 -22v-248q0 -38 23 -57.5t52 -19.5q28 0 51 19.5t23 59.5v246q0 14 -8 22t-22 8v21h128v-21q-14 0 -22 -8t-8 -22v-248q0 -35 -12 -61.5t-32 -44t-45.5 -26.5t-52.5 -9t-52.5 9t-46 26.5t-32.5 44t-12 61.5v248q0 14 -8 22t-22 8v21z
M114 67q21 0 42 -4t42 -9.5t42.5 -9.5t42.5 -4q14 0 26 7.5t21 18.5l20 -46q-32 -24 -66 -24q-21 0 -42 4t-42 9t-42 9t-43 4q-19 0 -35 -4t-30 -24l-22 46q42 27 86 27z" />
    <glyph glyph-name="w.ss01" unicode="&#xe028;" horiz-adv-x="528" 
d="M5 545h128v-21q-25 0 -22 -28l57 -341q15 33 32.5 70.5t33 83.5t25.5 103t10 129q0 49 -10 83.5t-25.5 56t-34 31t-34.5 9.5q-19 0 -31.5 -10.5t-12.5 -29.5q0 -12 8.5 -19.5t25.5 -4.5l-10 -62q-37 2 -57.5 25t-20.5 61q0 45 29.5 69.5t69.5 24.5q27 0 55.5 -13
t51.5 -40.5t37.5 -71.5t14.5 -105q0 -54 -6 -100t-16 -87l60 -189l54 327q5 28 -21 28v21h127v-21q-14 0 -25 -7.5t-14 -20.5l-79 -440v-5q0 -14 8 -22t22 -8v-21h-128l1 21q11 0 19 6.5t10 17.5l-66 208q-24 -62 -47.5 -108t-32.5 -78v-16q0 -14 8 -22t22 -8v-21h-128v21
q14 0 22 8t8 22v5l-79 440q-2 13 -13.5 20.5t-25.5 7.5v21z" />
    <glyph glyph-name="h.ss02" unicode="&#xe02d;" horiz-adv-x="409" 
d="M-26 113q-43 5 -68.5 25t-35 48t-3.5 59t25 57.5t50.5 43.5t73.5 17h17.5t16.5 -1v132q0 14 -8 22t-22 8v21h128v-21q-14 0 -22 -8t-8 -22v-145q54 -16 97.5 -46t75.5 -65v256q0 14 -8 22t-22 8v21h128v-21q-14 0 -22 -8t-8 -22v-443q0 -14 8 -22t22 -8v-21h-128v21
q14 0 22 8t8 22v96q-6 15 -21 34.5t-37.5 39t-51.5 37t-63 29.5v-236q0 -14 8 -22t22 -8v-21h-128v21q14 0 22 8t8 22v252q-8 1 -17 1.5t-17 0.5q-38 0 -58.5 -18.5t-25 -41t4.5 -41t29 -18.5q15 0 33 12l-25 -85v0z" />
    <glyph glyph-name="r_o" unicode="&#xe03c;" horiz-adv-x="727" 
d="M118 448v-240q29 19 58.5 42.5t53.5 50.5t39.5 57.5t15.5 62.5q0 30 -13.5 50.5t-46.5 20.5q-28 0 -49 -17.5t-23 -46.5zM558 492q-6 0 -10.5 -5t-4 -11t6.5 -11t20 -5l-39 -45q-26 10 -33.5 24.5t-2.5 30.5q-18 -18 -28.5 -47.5t-13.5 -63t1 -67t16 -60.5t31 -44t46 -17
q31 0 52 22.5t32 57t11.5 75t-8.5 76t-28 61t-48 29.5zM201 187q-21 -16 -42 -29.5t-41 -25.5v-81q0 -14 8 -22t22 -8v-21h-128v21q14 0 22 8t8 22v443q0 14 -8 22t-22 8v21h98v-38q21 23 47.5 36.5t59.5 13.5q60 0 92.5 -39.5t32.5 -96.5q0 -54 -27 -101t-68 -87
q16 -50 48.5 -87t72 -62t83.5 -37.5t84 -12.5q54 0 90 21l-53 -85q-55 -4 -112.5 8t-109 39t-93 70t-64.5 100zM547 108q-53 0 -88.5 33t-53.5 83t-18 108t18 108t53.5 83t88.5 33t89 -33t53.5 -83t17.5 -108t-17.5 -108t-53.5 -83t-89 -33z" />
    <glyph glyph-name="underscore" unicode="_" horiz-adv-x="379" 
d="M20 40h339v-40h-339v40z" />
    <glyph glyph-name="preview" horiz-adv-x="5627" 
d="M10 80q0 52 15.5 90t41 63.5t58 38.5t66.5 15v205q0 9 -5 14t-12 5t-14 -4l-5 17l121 80l6 -19q-16 -11 -20 -29t-4 -44v-142q8 3 14.5 6.5t14.5 7.5q17 10 32 25.5t26.5 34t18 38.5t6.5 40q0 53 -29 85t-83 32q-38 0 -67.5 -14.5t-49.5 -39t-30.5 -56.5t-10.5 -67
q0 -15 4.5 -30t12.5 -27t19 -20t23 -8l-55 -62q-32 29 -48 66.5t-16 80.5q0 48 15 91t43.5 75.5t69 51.5t90.5 19q39 0 71 -13t54.5 -36.5t34.5 -56t12 -71.5q0 -38 -17 -78t-43 -67q58 -40 95.5 -98.5t37.5 -131.5q0 -60 -18 -112.5t-52.5 -91.5t-84 -61.5t-112.5 -22.5
q-47 0 -88.5 16.5t-72 46t-48 70t-17.5 88.5zM258 279q49 -13 82.5 -48t33.5 -89q0 -29 -12 -60l-73 25q12 5 18 15.5t6 24.5q0 24 -15.5 42t-39.5 28v-197q0 -13 8.5 -21t22.5 -8v-21h-129l1 21q14 0 22 8t8 21v207q-23 -2 -44.5 -11t-38.5 -27t-27.5 -45t-10.5 -64
q0 -36 13 -65.5t35.5 -50.5t52.5 -33t65 -12q50 0 88.5 18t65 48.5t40 72t13.5 89.5q0 31 -9.5 58.5t-26 51.5t-38.5 44t-47 36q-15 -10 -31 -17.5t-33 -14.5v-26zM627 448v-240q29 19 58.5 42.5t53.5 50.5t39.5 57.5t15.5 62.5q0 30 -13.5 50.5t-46.5 20.5q-28 0 -49 -17.5
t-23 -46.5zM1067 492q-6 0 -10.5 -5t-4 -11t6.5 -11t20 -5l-39 -45q-26 10 -33.5 24.5t-2.5 30.5q-18 -18 -28.5 -47.5t-13.5 -63t1 -67t16 -60.5t31 -44t46 -17q31 0 52 22.5t32 57t11.5 75t-8.5 76t-28 61t-48 29.5zM710 187q-21 -16 -42 -29.5t-41 -25.5v-81q0 -14 8 -22
t22 -8v-21h-128v21q14 0 22 8t8 22v443q0 14 -8 22t-22 8v21h98v-38q21 23 47.5 36.5t59.5 13.5q60 0 92.5 -39.5t32.5 -96.5q0 -54 -27 -101t-68 -87q16 -50 48.5 -87t72 -62t83.5 -37.5t84 -12.5q54 0 90 21l-53 -85q-55 -4 -112.5 8t-109 39t-93 70t-64.5 100zM1056 108
q-53 0 -88.5 33t-53.5 83t-18 108t18 108t53.5 83t88.5 33t89 -33t53.5 -83t17.5 -108t-17.5 -108t-53.5 -83t-89 -33zM1198 545h128v-21q-25 0 -22 -28l57 -341q15 33 32.5 70.5t33 83.5t25.5 103t10 129q0 49 -10 83.5t-25.5 56t-34 31t-34.5 9.5q-19 0 -31.5 -10.5
t-12.5 -29.5q0 -12 8.5 -19.5t25.5 -4.5l-10 -62q-37 2 -57.5 25t-20.5 61q0 45 29.5 69.5t69.5 24.5q27 0 55.5 -13t51.5 -40.5t37.5 -71.5t14.5 -105q0 -54 -6 -100t-16 -87l60 -189l54 327q5 28 -21 28v21h127v-21q-14 0 -25 -7.5t-14 -20.5l-79 -440v-5q0 -14 8 -22
t22 -8v-21h-128l1 21q11 0 19 6.5t10 17.5l-66 208q-24 -62 -47.5 -108t-32.5 -78v-16q0 -14 8 -22t22 -8v-21h-128v21q14 0 22 8t8 22v5l-79 440q-2 13 -13.5 20.5t-25.5 7.5v21zM1730 -60q14 0 22 8t8 22v625q0 13 -8 21t-22 8v21h128v-21q-14 0 -22 -8t-8 -21v-38
q0 -47 18 -92.5t44.5 -91t57.5 -92t58 -95.5v409q0 13 -8 21t-22 8v21h128v-21q-14 0 -22 -8t-8 -21v-625q0 -14 8 -22t22 -8v-21h-128v21q14 0 22 8t8 21v14.5t-1 14.5q-3 49 -22 92t-45 85t-55.5 84t-54.5 90v-379q0 -14 8 -22t22 -8v-21h-128v21zM2789 -140
q-107 2 -189 39.5t-138.5 97.5t-89 136t-41 155t6 154t51 134t95 95t137.5 36q54 0 88.5 -23t51 -57.5t15 -74.5t-19 -74.5t-51.5 -57.5t-83 -23q-29 0 -59.5 12t-48.5 37l61 57q0 -23 16 -32.5t31 -9.5q27 0 47 13.5t31 33.5t12.5 44t-8 44t-30 33.5t-53.5 13.5
q-63 0 -109.5 -30.5t-75.5 -81t-39 -114.5t-1.5 -131t37 -131.5t78 -115.5t120 -82.5t162.5 -32.5q14 0 16 14.5t-5 26.5h20l29 -133l-21 1q-2 11 -13.5 19t-25.5 8h-4zM2792 113q-43 5 -68.5 25t-35 48t-3.5 59t25 57.5t50.5 43.5t73.5 17h17.5t16.5 -1v132q0 14 -8 22
t-22 8v21h128v-21q-14 0 -22 -8t-8 -22v-145q54 -16 97.5 -46t75.5 -65v256q0 14 -8 22t-22 8v21h128v-21q-14 0 -22 -8t-8 -22v-443q0 -14 8 -22t22 -8v-21h-128v21q14 0 22 8t8 22v96q-6 15 -21 34.5t-37.5 39t-51.5 37t-63 29.5v-236q0 -14 8 -22t22 -8v-21h-128v21
q14 0 22 8t8 22v252q-8 1 -17 1.5t-17 0.5q-38 0 -58.5 -18.5t-25 -41t4.5 -41t29 -18.5q15 0 33 12zM3251 545h128v-21q-14 0 -22 -8t-8 -22v-248q0 -38 23 -57.5t52 -19.5q28 0 51 19.5t23 59.5v246q0 14 -8 22t-22 8v21h128v-21q-14 0 -22 -8t-8 -22v-248
q0 -35 -12 -61.5t-32 -44t-45.5 -26.5t-52.5 -9t-52.5 9t-46 26.5t-32.5 44t-12 61.5v248q0 14 -8 22t-22 8v21zM3350 67q21 0 42 -4t42 -9.5t42.5 -9.5t42.5 -4q14 0 26 7.5t21 18.5l20 -46q-32 -24 -66 -24q-21 0 -42 4t-42 9t-42 9t-43 4q-19 0 -35 -4t-30 -24l-22 46
q42 27 86 27zM3749 51q0 -14 8 -22t22 -8v-21h-128v21q14 0 22 8t8 22v443q0 14 -8 22t-22 8v21h128v-21q-14 0 -22 -8t-8 -22v-23q1 -8 2 -17t3 -17q8 -31 24 -60t36.5 -56.5t42 -54.5t41.5 -54v282q0 14 -8 22t-22 8v21h128v-21h-1q-14 0 -21.5 -8t-7.5 -22v-443
q0 -14 7.5 -22t21.5 -8h1v-21h-128v21q14 0 22 8t8 22v14q-1 5 -1 14q-3 27 -18.5 54.5t-37 56.5t-46 59.5t-46.5 63.5v-262zM4038 21q14 0 22 8t8 22v443q0 14 -8 22t-22 8v21h128v-21q-14 0 -22 -8t-8 -22v-174q41 35 76.5 80.5t49.5 96.5q3 12 -3.5 19.5t-19.5 7.5h-4v21
h123v-21q-30 0 -37 -31q-9 -39 -28 -75.5t-44 -68.5l25 -14q-19 -32 -23.5 -79t6 -92t35.5 -80t64 -43l-63 -44q-36 21 -59.5 54.5t-36 73t-13.5 82t9 82.5q-29 -26 -57 -45v-193q0 -14 8 -22t22 -8v-21h-128v21zM4404 545h322v-88h-21v1q0 14 -8 22t-22 8h-173v-106l46 36
q9 -13 24.5 -23t35 -16t40.5 -8.5t41 -0.5l-49 -54q-37 0 -75.5 13t-62.5 41v-312h173q14 0 22 7.5t8 21.5v1h21v-88h-322v21q14 0 22 8t8 22v443q0 14 -8 22t-22 8v21zM4786 545h98v-38q21 23 47.5 36.5t59.5 13.5q60 0 92.5 -39.5t32.5 -96.5q0 -51 -24 -95.5t-62 -82.5
l66 -192q5 -13 15 -21.5t24 -8.5v-21h-137v21q14 0 24.5 8.5t5.5 21.5l-50 145q-23 -19 -47 -34.5t-47 -29.5v-81q0 -14 8 -22t22 -8v-21h-128v21q14 0 22 8t8 22v443q0 14 -8 22t-22 8v21zM4884 208q29 19 58.5 42.5t53.5 50.5t39.5 57.5t15.5 62.5q0 30 -13.5 50.5
t-46.5 20.5q-28 0 -49 -17.5t-23 -46.5l-35 20v-240zM5535 127q0 -50 -16.5 -87.5t-43.5 -62t-61 -37t-70 -12.5q-35 0 -68.5 12t-59.5 36t-42 59.5t-16 83.5q0 40 12 69.5t31.5 49t44 29.5t48.5 10q21 0 40 -7t33.5 -20.5t23 -33.5t8.5 -47q0 -35 -20 -66t-51 -48l-34 60
q24 2 34.5 18t10.5 36q0 24 -13 36t-31 12q-13 0 -26 -6t-24 -18.5t-18 -31.5t-7 -44q0 -32 11 -56t28.5 -40.5t40 -24.5t46.5 -8t47 8.5t41.5 25.5t29.5 43.5t11 61.5q0 40 -16.5 76.5t-41.5 70.5t-54.5 66.5t-54.5 64.5t-41.5 64.5t-16.5 67.5q0 25 9 45.5t24.5 35.5
t35.5 23t43 8q18 0 36.5 -5.5t35.5 -17.5q4 -2 9 -2.5t5 5.5v16h21v-126h-21v8q0 13 -8 25t-20.5 21t-27.5 14t-30 5q-21 0 -36.5 -13t-15.5 -42q0 -23 16.5 -49.5t41.5 -56.5t54.5 -64t54.5 -71.5t41.5 -80t16.5 -88.5z" />
    <glyph glyph-name="uni0000" horiz-adv-x="0" 
 />
    <glyph glyph-name="uni000D" horiz-adv-x="250" 
 />
    <glyph glyph-name="i" unicode="i" horiz-adv-x="168" 
d="M20 545h128v-21q-14 0 -22 -8t-8 -22v-443q0 -14 8 -22t22 -8v-21h-128v21q14 0 22 8t8 22v443q0 14 -8 22t-22 8v21z" />
    </font>
</defs>
</svg>
